PathFileType	4	(X/Y/Z)	/Users/rkoike/Documents/python/sports2d/webcam_20251024_144952/webcam_20251024_144952_px_person01.trc
DataRate	CameraRate	NumFrames	NumMarkers	Units	OrigDataRate	OrigDataStartFrame	OrigNumFrames
30	30	5	22	m	30	481	962
Frame#	Time	Hip			RHip			RKnee			RAnkle			RBigToe			RSmallToe			RHeel			LHip			LKnee			LAnkle			LBigToe			LSmallToe			LHeel			Neck			Head			Nose			RShoulder			RElbow			RWrist			LShoulder			LElbow			LWrist			
		X1	Y1	Z1	X2	Y2	Z2	X3	Y3	Z3	X4	Y4	Z4	X5	Y5	Z5	X6	Y6	Z6	X7	Y7	Z7	X8	Y8	Z8	X9	Y9	Z9	X10	Y10	Z10	X11	Y11	Z11	X12	Y12	Z12	X13	Y13	Z13	X14	Y14	Z14	X15	Y15	Z15	X16	Y16	Z16	X17	Y17	Z17	X18	Y18	Z18	X19	Y19	Z19	X20	Y20	Z20	X21	Y21	Z21	X22	Y22	Z22
481	16.05001734304544	526.1444163626899	766.6134012978459	0.0	383.0041889573264	723.2940299045619	0.0	189.1405652998947	680.3342217348983	0.0	286.5020025130532	685.4882549405165	0.0			0.0			0.0			0.0	669.1916001257373	723.4201443352683	0.0	856.6318280348422	661.4429596098917	0.0	961.7405289544	639.6848042673536	0.0			0.0	829.3565238830115	333.9305550307034	0.0			0.0	513.9206124987328	384.8224017024236	0.0	469.23114343501254	42.61110690198031	0.0	458.13059763535546	220.39774342682566	0.0	260.5465012789677	465.67502416431813	0.0	189.26167002776583	715.5999945254008	0.0	240.28184482299613	720.3134384999747	0.0	792.725317663074	505.5413317186278	0.0	884.4426062569263	709.4707302869659	0.0	773.151006729552	716.0623219446828	0.0
482	16.083385362469652	526.8129882474572	767.4626339220787	0.0	383.8871201304712	724.7468757758958	0.0	189.1405652998947	680.3342217348982	0.0	286.5020025130532	685.4882549405165	0.0			0.0			0.0			0.0	669.7052016854414	724.7082835018376	0.0	856.6318280524824	661.4429596432611	0.0	961.7405289544	639.6848042673536	0.0			0.0	829.3565238830115	333.9305550307034	0.0			0.0	515.5843639581087	378.06371492389025	0.0	468.8717731733623	42.03242252416418	0.0	459.6263420289137	222.50239907851227	0.0	260.5478416753258	462.62723361053156	0.0	190.14864431104925	719.0104386270078	0.0	241.16784206137302	722.9952626282621	0.0	787.9911636823872	500.8658258085123	0.0	882.1830694630098	710.3709480281555	0.0	763.152945686009	717.4585481044287	0.0
483	16.11675338189386	526.922224474548	767.544894044325	0.0	384.06115604968807	724.9110984221874	0.0	189.14056529989466	680.3342217348982	0.0	286.5020025130532	685.4882549405165	0.0			0.0			0.0			0.0	670.2478963344854	724.8721423332482	0.0	856.6318280068797	661.4429595569953	0.0	961.7405289544	639.6848042673536	0.0			0.0	829.3565238830115	333.9305550307034	0.0			0.0	515.2788646653407	377.2514138303777	0.0	467.874129755139	42.27615226448947	0.0	459.2315902858664	221.88309251299913	0.0	259.7351730860923	463.4031587887456	0.0	189.82000943659165	718.3289857100708	0.0	239.86830723068593	724.3251745683154	0.0	786.6374831067703	499.3874331812648	0.0	881.5734540096254	710.6869105817293	0.0	762.5592274962157	718.1417829918205	0.0
484	16.150121401318074	526.4266946340343	767.5230079739088	0.0	383.3583091398346	723.8365936250734	0.0	189.1405652998946	680.3342217348982	0.0	286.5020025130532	685.4882549405165	0.0			0.0			0.0			0.0	670.923352827042	723.8297552573426	0.0	856.6318278307373	661.44295922379	0.0	961.7405289544	639.6848042673536	0.0			0.0	829.3565238830115	333.9305550307034	0.0			0.0	513.8050282887476	383.508549616597	0.0	465.98247111223486	43.33430769568015	0.0	457.00465065443564	219.2944353131457	0.0	258.5826853083139	468.3131258610587	0.0	188.3010536946956	714.3374352047099	0.0	235.47285174226667	724.2027683440921	0.0	790.484853105194	502.1626323632383	0.0	884.0791129487183	710.6860200433333	0.0	774.8583415306952	718.4535627328058	0.0
485	16.183489420742283	525.5384932849654	767.533339707152	0.0	382.0984195129372	722.1686912037827	0.0	189.1405652998946	680.3342217348982	0.0	286.5020025130532	685.4882549405165	0.0			0.0			0.0			0.0	671.7701206322104	722.1737924539821	0.0	856.6318277312215	661.4429590355381	0.0	961.7405289544	639.6848042673536	0.0			0.0	829.3565238830115	333.9305550307034	0.0			0.0	514.6539157154627	385.50772415991196	0.0	464.76383310641063	43.194517378403816	0.0	455.72720754903406	217.45623064262352	0.0	259.34721013280296	470.5325226088935	0.0	186.91394205819458	712.5238396671713	0.0	228.8100055143588	723.1950410830607	0.0	793.2584050503324	502.3828091988576	0.0	887.1452241005162	710.8892437181765	0.0	795.8264212952386	718.8425462112003	0.0
